<?xml version="1.0" encoding="UTF-8" standalone="no"?>
        <svg 
    viewBox="14.6484375 -75.6591796875 438.28125 51.0498046875"
    width="423.6328125"
    height="126.708984375"
   xmlns="http://www.w3.org/2000/svg"
   xmlns:svg="http://www.w3.org/2000/svg">
   <path d="M57.71-2.78L57.71-2.78Q58.74-5.57 63.72-9.52L63.72-9.52Q69.29-14.21 77.71-23.44Q86.13-32.67 86.43-34.28L86.43-34.28Q86.13-34.57 84.16-34.57Q82.18-34.57 78.96-34.28L78.96-34.28Q77.05-34.13 75.73-34.13L75.73-34.13Q73.54-34.13 72.14-34.50Q70.75-34.86 68.99-36.91L68.99-36.91L65.48-39.55L65.33-57.57Q64.89-64.89 64.89-69.14L64.89-69.14Q64.89-71.19 65.11-73.83Q65.33-76.46 66.06-77.34L66.06-77.34Q66.80-78.37 69.58-78.74Q72.36-79.10 79.98-79.39L79.98-79.39L92.72-79.98L92.72-90.23L77.20-90.23Q66.65-90.23 63.72-90.45Q60.79-90.67 60.50-91.99L60.50-91.99Q59.47-93.90 59.47-95.36Q59.47-96.83 60.79-98.44L60.79-98.44Q61.38-99.46 64.53-99.83Q67.68-100.20 77.64-100.49L77.64-100.49L93.16-101.07L93.46-105.76Q93.46-107.81 93.97-109.72Q94.48-111.62 95.36-112.35L95.36-112.35Q96.39-113.67 97.12-113.75Q97.85-113.82 98.00-113.82L98.00-113.82Q99.32-113.82 101.66-112.94L101.66-112.94Q103.27-112.65 103.64-111.47Q104.00-110.30 104.00-106.49L104.00-106.49Q104.00-105.76 104.00-105.03L104.00-105.03Q104.00-101.37 105.83-100.56Q107.67-99.76 114.99-99.76L114.99-99.76Q117.04-99.76 119.53-99.76L119.53-99.76Q126.71-99.76 129.05-99.46Q131.40-99.17 132.57-97.85L132.57-97.85Q134.03-96.24 134.11-95.21Q134.18-94.19 134.18-94.04L134.18-94.04Q134.18-92.43 133.01-90.67L133.01-90.67Q132.57-89.36 130.81-89.28Q129.05-89.21 127.44-89.21L127.44-89.21Q124.22-89.21 118.07-89.36L118.07-89.36L104.00-90.23L104.00-79.98L116.46-79.69Q124.37-79.39 127.00-79.03Q129.64-78.66 130.37-77.49L130.37-77.49Q131.40-73.54 131.47-64.75Q131.54-55.96 131.54-54.35L131.54-54.35Q131.54-41.02 130.37-36.62L130.37-36.62Q129.93-34.86 128.54-34.50Q127.15-34.13 124.22-34.13L124.22-34.13Q122.31-34.13 119.53-34.28L119.53-34.28Q115.43-34.28 112.65-34.06Q109.86-33.84 109.28-33.25L109.28-33.25Q109.28-32.96 112.87-29.00Q116.46-25.05 122.17-19.48L122.17-19.48Q127.73-14.06 131.47-10.11Q135.21-6.15 135.35-5.57L135.35-5.57Q135.35-4.83 134.99-3.88Q134.62-2.93 133.89-2.20L133.89-2.20Q132.42 0 130.52 0L130.52 0Q129.79 0 127.95-0.66Q126.12-1.32 120.70-6.59L120.70-6.59Q117.48-9.52 114.48-12.30Q111.47-15.09 109.86-16.41L109.86-16.41Q108.25-17.72 107.08-19.04Q105.91-20.36 105.62-21.09L105.62-21.09Q104.88-23.00 104.44-23.00L104.44-23.00Q104.00-23.00 103.64-20.51Q103.27-18.02 103.27-7.47L103.27-7.47Q103.27 4.69 102.47 7.62Q101.66 10.55 98.88 10.55L98.88 10.55Q98.58 10.55 98.29 10.55L98.29 10.55Q98.00 10.55 97.85 10.55L97.85 10.55Q95.07 10.55 94.04 6.74Q93.02 2.93 92.72-8.79L92.72-8.79Q92.72-14.50 92.43-18.46Q92.14-22.41 91.85-22.71L91.85-22.71Q91.85-22.71 91.70-22.71L91.70-22.71Q91.41-22.71 90.09-21.39Q88.77-20.07 86.57-17.72L86.57-17.72Q74.71-3.52 69.80 0.07Q64.89 3.66 62.40 3.66L62.40 3.66Q60.64 3.66 59.47 2.34L59.47 2.34Q57.42 0.73 57.42-1.17L57.42-1.17Q57.42-2.05 57.71-2.78ZM15.09-99.32L15.09-99.32Q15.38-107.67 16.70-107.67L16.70-107.67Q16.70-107.67 16.70-107.67L16.70-107.67Q17.87-108.69 21.53-108.91Q25.20-109.13 36.04-109.13L36.04-109.13Q49.22-109.13 52.51-108.47Q55.81-107.81 55.81-105.18L55.81-105.18Q55.81-105.03 55.81-104.74L55.81-104.74Q55.52-102.54 52.73-94.92Q49.95-87.30 47.61-82.76L47.61-82.76Q47.02-81.59 47.02-80.27L47.02-80.27Q47.02-79.83 47.17-78.66Q47.31-77.49 49.22-72.07L49.22-72.07Q51.86-64.16 53.03-55.52Q54.20-46.88 54.20-42.77L54.20-42.77Q54.20-39.55 53.61-37.79L53.61-37.79Q52.29-34.13 47.31-34.13L47.31-34.13Q47.17-34.13 44.38-34.20Q41.60-34.28 33.11-38.53L33.11-38.53Q29.88-39.84 27.91-40.80Q25.93-41.75 25.78-41.75L25.78-41.75L25.78-34.57Q25.78-27.69 25.93-17.72L25.93-17.72Q26.37-6.74 26.37-1.03L26.37-1.03Q26.37 1.76 26.15 4.83Q25.93 7.91 24.90 8.35L24.90 8.35Q23.14 10.11 21.39 10.11L21.39 10.11Q20.65 10.11 18.97 9.23Q17.29 8.35 15.67 3.66L15.67 3.66Q15.23 1.76 14.94-12.96Q14.65-27.69 14.65-52.73L14.65-52.73Q14.65-90.67 15.09-99.32ZM26.22-51.71L26.22-51.71Q26.51-51.12 26.95-51.12L26.95-51.12Q27.10-51.12 27.25-51.12L27.25-51.12Q28.56-51.42 29.88-51.42L29.88-51.42Q30.91-51.42 32.52-51.05Q34.13-50.68 37.06-48.49L37.06-48.49Q40.72-45.56 42.19-45.56L42.19-45.56Q42.63-45.56 42.85-45.92Q43.07-46.29 43.07-47.61L43.07-47.61Q43.07-50.24 42.04-56.40L42.04-56.40Q41.02-62.84 38.75-68.99Q36.47-75.15 34.72-76.46L34.72-76.46Q33.98-77.05 33.98-78.22L33.98-78.22Q33.98-78.96 34.35-80.49Q34.72-82.03 37.06-86.72L37.06-86.72Q38.67-89.65 39.55-92.07Q40.43-94.48 40.72-95.51L40.72-95.51Q40.72-95.65 40.72-95.80L40.72-95.80Q40.72-96.53 39.55-96.90Q38.38-97.27 33.69-97.56L33.69-97.56L26.22-97.85L25.93-77.78L25.93-54.35Q25.93-53.91 25.93-53.47L25.93-53.47Q25.93-52.29 26.22-51.71ZM104.00-47.17L104.00-43.51L120.70-44.09L120.85-48.34L121.14-52.29L113.23-52.29Q109.86-52.29 107.45-52.15Q105.03-52.00 104.88-51.42L104.88-51.42Q104.59-51.12 104.30-49.95Q104.00-48.78 104.00-47.17L104.00-47.17ZM83.50-52.29L75.59-52.29L75.88-48.34L76.03-44.09L84.52-43.80Q86.87-43.65 88.48-43.65L88.48-43.65Q90.97-43.65 91.85-43.95Q92.72-44.24 92.72-45.41L92.72-45.41Q92.72-45.56 92.72-45.85L92.72-45.85Q92.72-46.73 92.58-47.90Q92.43-49.07 92.14-50.10L92.14-50.10Q91.85-51.71 90.45-52.00Q89.06-52.29 83.50-52.29L83.50-52.29ZM81.59-69.58L75.59-69.14L76.03-62.26L92.14-62.26L92.14-65.92Q92.14-66.36 92.14-66.80L92.14-66.80Q92.14-69.29 91.11-69.58Q90.09-69.87 88.04-69.87L88.04-69.87Q85.69-69.87 81.59-69.58L81.59-69.58ZM120.85-69.43L105.03-69.43L105.03-62.26L120.41-62.26L120.70-65.63L120.85-69.43ZM167.72-80.13L167.72-80.13Q168.02-83.50 171.09-85.69L171.09-85.69Q172.12-85.84 177.54-86.43Q182.96-87.01 190.43-87.16L190.43-87.16L207.71-87.74L210.35-98.88Q211.67-103.56 212.77-107.15Q213.87-110.74 214.31-111.47L214.31-111.47Q215.77-113.23 217.53-113.23L217.53-113.23Q218.55-113.23 220.83-112.21Q223.10-111.18 223.39-107.81L223.39-107.81Q223.39-106.49 222.80-103.42Q222.22-100.34 221.48-96.97L221.48-96.97Q220.75-93.60 220.53-91.77Q220.31-89.94 220.31-89.21L220.31-89.21Q220.31-88.62 220.46-88.33L220.46-88.33Q220.90-88.04 229.47-87.74Q238.04-87.45 250.78-87.16L250.78-87.16Q269.24-87.16 275.32-86.79Q281.40-86.43 281.40-85.69L281.40-85.69Q282.28-84.23 282.28-82.62L282.28-82.62Q282.28-82.32 282.20-81.23Q282.13-80.13 281.10-78.52L281.10-78.52Q280.81-77.20 275.39-76.90Q269.97-76.61 248.58-76.61L248.58-76.61L217.53-76.61L213.57-66.06Q211.96-61.67 210.42-58.08Q208.89-54.49 208.59-53.76L208.59-53.76Q207.86-52.59 207.86-52.00L207.86-52.00Q207.86-51.86 208.08-51.64Q208.30-51.42 210.35-51.12L210.35-51.12Q211.96-50.83 220.53-50.54Q229.10-50.24 240.67-50.24L240.67-50.24Q259.72-50.10 264.62-49.80Q269.53-49.51 269.68-48.19L269.68-48.19Q270.56-47.46 270.63-44.09Q270.70-40.72 270.70-37.94L270.70-37.94Q270.70-32.52 270.56-22.85L270.56-22.85Q270.56-2.05 268.29 1.39Q266.02 4.83 255.18 4.83L255.18 4.83Q254.00 4.83 252.54 4.83L252.54 4.83Q223.10 6.30 212.70 6.30L212.70 6.30Q211.67 6.30 206.54 6.23Q201.42 6.15 200.68 4.83L200.68 4.83L198.34 2.93L198.49-13.92Q198.49-20.80 198.41-25.63Q198.34-30.47 198.05-30.76L198.05-30.76Q198.05-30.76 197.90-30.76L197.90-30.76Q197.46-30.76 196.00-29.08Q194.53-27.39 192.48-24.76L192.48-24.76Q186.91-16.85 183.25-13.26Q179.59-9.67 177.25-9.67L177.25-9.67Q174.02-9.67 173.29-11.57L173.29-11.57Q172.71-12.30 172.71-13.33L172.71-13.33Q172.71-15.09 174.39-18.60Q176.07-22.12 181.93-30.32L181.93-30.32Q187.21-37.65 191.82-45.04Q196.44-52.44 197.02-54.05L197.02-54.05Q197.02-54.49 198.19-57.57Q199.37-60.64 201.12-65.04L201.12-65.04Q203.03-69.58 203.91-72.14Q204.79-74.71 204.79-75.59L204.79-75.59Q204.79-76.03 204.64-76.17L204.64-76.17Q204.35-76.46 199.58-76.46Q194.82-76.46 188.23-76.17L188.23-76.17Q181.64-75.59 178.34-75.51Q175.05-75.44 173.73-75.44L173.73-75.44Q171.39-75.44 170.65-75.59L170.65-75.59Q167.72-76.46 167.72-79.54L167.72-79.54Q167.72-79.83 167.72-80.13ZM209.91-38.38L209.91-38.38L209.91-22.12L210.21-5.71L258.98-6.30L259.42-38.96L234.67-38.96Q224.41-38.67 217.31-38.53Q210.21-38.38 209.91-38.38ZM350.54-48.93L350.54-48.93Q351.27-51.27 353.91-52.00L353.91-52.00Q361.82-52.88 396.09-52.88Q430.37-52.88 436.38-52.00L436.38-52.00Q437.99-50.98 438.13-49.58Q438.28-48.19 438.28-47.90L438.28-47.90Q438.28-45.70 436.67-44.09L436.67-44.09Q436.08-43.07 431.91-42.85Q427.73-42.63 414.99-42.63L414.99-42.63L395.07-42.63L394.78-39.11L394.78-36.04L413.67-36.04Q425.83-36.04 429.57-35.74Q433.30-35.45 433.30-34.42L433.30-34.42Q433.45-33.54 433.45-32.08L433.45-32.08Q433.45-27.10 432.13-12.82Q430.81 1.46 429.79 7.03L429.79 7.03Q429.35 8.79 428.39 10.03Q427.44 11.28 426.42 11.72L426.42 11.72Q425.68 12.30 424.80 12.30L424.80 12.30Q424.22 12.30 423.19 11.87Q422.17 11.43 418.95 9.67L418.95 9.67Q414.84 6.74 413.23 5.05Q411.62 3.37 411.62 0.88L411.62 0.88Q411.91-1.76 413.67-3.00Q415.43-4.25 417.33-4.25L417.33-4.25Q417.92-4.25 418.51-4.10L418.51-4.10Q419.09-3.96 419.53-3.96L419.53-3.96Q420.26-3.96 420.70-4.83Q421.14-5.71 421.44-10.99L421.44-10.99Q421.88-14.06 422.02-16.99Q422.17-19.92 422.17-21.53L422.17-21.53L422.17-24.61L407.96-24.61L407.96-10.40Q407.96 0.73 407.08 3.37Q406.20 6.01 403.56 6.01L403.56 6.01Q403.13 6.01 402.69 6.01L402.69 6.01Q402.25 6.01 401.95 6.01L401.95 6.01Q399.32 6.01 398.51 3.22Q397.71 0.44 397.41-10.69L397.41-10.69L397.12-24.90L391.85-25.20L386.87-25.63L387.30-12.30Q387.74-7.03 387.74-3.52L387.74-3.52Q387.74-2.64 387.67-0.29Q387.60 2.05 387.16 2.78L387.16 2.78Q385.99 4.69 384.59 4.91Q383.20 5.13 382.76 5.13L382.76 5.13Q380.86 5.13 379.25 3.81L379.25 3.81Q377.64 3.37 377.12-1.39Q376.61-6.15 375.73-23.88L375.73-23.88Q375.73-24.90 375.07-25.12Q374.41-25.34 373.39-25.34L373.39-25.34Q372.36-25.34 370.75-25.20L370.75-25.20L366.06-24.90L366.06-8.79Q366.06-1.90 365.92 2.93Q365.77 7.76 365.48 8.35L365.48 8.35Q364.89 8.79 363.87 9.38Q362.84 9.96 361.82 10.11L361.82 10.11Q360.94 10.40 360.21 10.40L360.21 10.40Q357.86 10.40 356.76 6.88Q355.66 3.37 355.22-11.72L355.22-11.72Q354.64-25.93 354.64-30.32Q354.64-34.72 355.52-34.86L355.52-34.86Q355.66-35.16 359.77-35.60Q363.87-36.04 369.73-36.47L369.73-36.47L383.64-37.35L384.23-42.63L368.70-42.63Q358.30-42.63 355.30-42.85Q352.29-43.07 351.56-44.38L351.56-44.38Q350.24-45.85 350.24-47.46L350.24-47.46Q350.24-48.19 350.54-48.93ZM352.29-83.64L352.29-83.64Q352.59-92.43 355.37-94.12Q358.15-95.80 369.14-95.80L369.14-95.80Q370.90-95.80 372.80-95.80L372.80-95.80L388.92-95.80L388.92-104.30L376.61-104.30Q368.70-104.30 366.06-104.52Q363.43-104.74 362.55-106.05L362.55-106.05Q361.08-107.52 361.08-109.13L361.08-109.13Q361.08-109.28 361.16-110.30Q361.23-111.33 362.84-112.65L362.84-112.65Q363.43-113.23 365.48-113.53Q367.53-113.82 370.46-113.96L370.46-113.96Q381.88-114.40 397.12-114.40L397.12-114.40Q401.07-114.40 413.31-114.33Q425.54-114.26 429.05-113.82L429.05-113.82Q430.66-112.65 430.66-110.30Q430.66-107.96 429.05-105.91L429.05-105.91Q428.47-104.74 425.61-104.52Q422.75-104.30 413.96-104.30L413.96-104.30L400.34-104.30L400.34-101.95Q400.20-101.22 400.20-100.63L400.20-100.63Q400.20-98.00 402.61-97.34Q405.03-96.68 417.92-96.68L417.92-96.68Q427.73-96.68 431.40-96.39Q435.06-96.09 435.35-95.36L435.35-95.36Q436.52-92.87 436.52-85.11L436.52-85.11Q436.52-82.03 436.08-73.10Q435.64-64.16 434.03-59.91L434.03-59.91Q432.71-58.15 431.76-58.01Q430.81-57.86 430.52-57.86L430.52-57.86Q429.05-57.86 427.44-59.18L427.44-59.18Q426.12-59.77 425.83-62.04Q425.54-64.31 425.54-68.99L425.54-68.99Q425.54-70.75 425.54-73.10L425.54-73.10L425.54-85.84L400.34-86.28L400.05-78.37Q400.05-67.68 399.61-64.45Q399.17-61.23 397.71-59.91L397.71-59.91Q395.80-57.28 394.92-57.20Q394.04-57.13 394.04-57.13L394.04-57.13Q392.29-57.13 390.23-59.18L390.23-59.18Q388.62-60.50 388.33-62.33Q388.04-64.16 388.04-67.38L388.04-67.38Q388.04-69.87 388.18-73.68L388.18-73.68L388.48-85.84L363.57-86.28L362.11-77.93Q361.23-73.97 360.42-71.34Q359.62-68.70 358.59-67.82L358.59-67.82Q357.28-66.50 356.91-66.43Q356.54-66.36 356.54-66.36L356.54-66.36Q355.96-66.36 354.93-67.68L354.93-67.68Q352.88-69.14 352.44-71.85Q352.00-74.56 352.00-77.20L352.00-77.20Q352.00-79.98 352.29-83.64ZM313.04-51.12L313.04-51.12Q315.97-59.47 329.30-87.16L329.30-87.16Q334.13-96.83 337.57-103.05Q341.02-109.28 343.07-112.21L343.07-112.21Q344.38-113.53 345.12-113.60Q345.85-113.67 346.00-113.67L346.00-113.67Q347.31-113.67 349.37-112.65L349.37-112.65Q350.39-112.50 351.20-111.69Q352.00-110.89 352.00-110.01L352.00-110.01Q351.27-107.37 346.22-96.97Q341.16-86.57 338.38-82.18L338.38-82.18Q337.06-81.30 336.99-77.56Q336.91-73.83 336.91-70.02L336.91-70.02Q336.91-62.55 337.06-47.61L337.06-47.61Q337.50-33.84 337.79-21.61Q338.09-9.38 338.38-4.39L338.38-4.39Q338.53-0.73 338.53 1.90L338.53 1.90Q338.53 3.22 338.45 5.35Q338.38 7.47 337.79 8.64L337.79 8.64Q336.47 10.69 333.98 10.69Q331.49 10.69 329.59 8.64L329.59 8.64Q328.27 8.06 327.91 2.27Q327.54-3.52 327.25-24.17L327.25-24.17Q326.95-37.06 326.73-46.00Q326.51-54.93 326.22-55.52L326.22-55.52Q326.07-55.66 326.07-55.66L326.07-55.66Q325.78-55.66 325.34-55.15Q324.90-54.64 324.61-53.91L324.61-53.91Q321.68-47.02 320.36-44.68Q319.04-42.33 318.02-41.75L318.02-41.75Q316.99-41.31 316.04-41.31Q315.09-41.31 313.77-42.04L313.77-42.04Q311.72-42.48 311.72-45.26L311.72-45.26Q311.72-47.46 313.04-51.12ZM402.98-68.41L402.98-68.41Q404.00-70.02 405.32-70.02Q406.64-70.02 412.35-68.70L412.35-68.70Q418.21-67.38 419.97-65.92Q421.73-64.45 421.73-62.84L421.73-62.84Q421.73-62.11 421.44-61.23L421.44-61.23Q420.85-60.21 420.04-59.40Q419.24-58.59 418.80-58.59L418.80-58.59Q416.60-58.89 410.96-60.06Q405.32-61.23 402.98-62.11L402.98-62.11Q401.37-62.84 401.37-64.67Q401.37-66.50 402.98-68.41ZM404.30-81.30L404.30-81.30Q405.62-82.32 408.47-82.32Q411.33-82.32 412.21-81.59L412.21-81.59Q412.35-81.30 413.60-80.79Q414.84-80.27 416.16-79.98L416.16-79.98Q417.63-79.69 419.38-79.17Q421.14-78.66 421.88-78.22L421.88-78.22Q423.19-77.34 423.41-76.83Q423.63-76.32 423.63-76.03L423.63-76.03Q423.63-75.44 423.19-74.71L423.19-74.71Q421.88-72.36 420.12-72.00Q418.36-71.63 417.33-71.63L417.33-71.63Q415.28-71.63 412.65-72.36L412.65-72.36Q410.30-73.10 408.33-73.75Q406.35-74.41 405.32-75L405.32-75Q403.42-76.03 403.27-77.05Q403.13-78.08 403.13-78.37L403.13-78.37Q403.13-79.98 404.30-81.30ZM364.60-79.69L364.60-79.69Q364.89-80.57 365.77-81.30L365.77-81.30Q367.24-82.32 369.14-82.32L369.14-82.32Q369.29-82.32 370.39-82.25Q371.48-82.18 376.03-80.57L376.03-80.57Q380.71-78.96 382.47-77.78Q384.23-76.61 384.23-74.71L384.23-74.71Q384.23-72.07 382.40-71.85Q380.57-71.63 379.98-71.63L379.98-71.63Q377.05-71.63 372.07-73.10L372.07-73.10Q367.53-74.41 365.99-75.37Q364.45-76.32 364.45-77.64L364.45-77.64Q364.31-78.08 364.31-78.52L364.31-78.52Q364.31-79.10 364.60-79.69ZM365.48-67.09L365.48-67.09Q367.09-68.26 370.46-68.26L370.46-68.26Q372.36-68.26 376.98-67.53Q381.59-66.80 383.64-64.45L383.64-64.45Q383.94-63.72 383.94-62.99L383.94-62.99Q383.94-62.26 383.57-61.08Q383.20-59.91 381.59-59.18L381.59-59.18Q381.15-59.03 380.42-59.03L380.42-59.03Q378.66-59.03 374.19-59.77Q369.73-60.50 366.50-61.52L366.50-61.52Q364.75-62.40 364.60-63.28Q364.45-64.16 364.45-64.45L364.45-64.45Q364.45-65.77 365.48-67.09Z"/>
    </svg>
        