<svg width="280" height="280" version="1.1" xmlns="http://www.w3.org/2000/svg" xmlns:xlink="http://www.w3.org/1999/xlink"><path d="M194.32 90.66L194.32 90.66Q193.76 95.14 192.36 95.70L192.36 95.70Q183.68 95.70 170.52 83.94L170.52 83.94Q170.52 79.74 180.04 81.14L180.04 81.14Q191.52 83.10 194.04 89.54L194.04 89.54Q194.32 90.10 194.32 90.66ZM243.88 70.50L243.88 70.50Q241.36 73.58 231.56 75.82L231.56 75.82L226.80 77.50Q217.56 81.98 208.04 88.14L208.04 88.14L205.24 88.14L211.12 69.38Q211.68 67.14 211.68 64.90L211.68 64.90Q206.64 60.98 164.08 69.66L164.08 69.66Q161.28 70.22 159.88 70.50L159.88 70.50Q159.04 76.10 159.04 98.78L159.04 98.78L158.20 112.78Q157.08 120.34 154.28 126.22L154.28 126.22L150.36 126.78Q143.36 117.82 146.44 90.94L146.44 90.94Q147.84 76.94 147.84 73.02L147.84 73.02Q146.16 73.30 126.84 78.62L126.84 78.62Q110.60 83.10 103.88 79.74L103.88 79.74Q100.52 83.94 96.60 97.38L96.60 97.38Q93.52 107.46 88.76 111.94L88.76 111.94Q84.56 111.38 83.16 104.10L83.16 104.10Q82.88 103.54 82.88 102.98L82.88 102.98Q82.60 98.78 87.36 88.70L87.36 88.70Q87.64 87.58 87.92 86.74L87.92 86.74Q89.04 83.66 91.56 67.98L91.56 67.98Q91.56 66.58 91.84 65.18L91.84 65.18L93.24 63.50Q96.32 64.34 101.64 71.62L101.64 71.62L103.04 73.30Q108.92 73.02 135.52 67.70L135.52 67.70Q141.96 66.30 147 65.74L147 65.74Q147 62.10 143.64 46.98L143.64 46.98Q143.36 45.58 143.36 44.74L143.36 44.74Q128.52 44.18 123.48 39.98L123.48 39.98L121.80 38.30L124.04 36.06Q136.64 34.38 169.12 24.02L169.12 24.02Q173.32 22.62 176.68 21.78L176.68 21.78Q183.40 19.82 189.56 21.50L189.56 21.50Q194.88 22.90 197.40 26.54L197.40 26.54Q197.40 29.62 193.76 31.30L193.76 31.30Q186.76 34.66 164.08 39.42L164.08 39.42Q156.24 40.82 151.20 42.50L151.20 42.50L159.04 48.38Q161.28 50.62 161.28 54.54L161.28 54.54Q161.00 55.38 159.32 62.66L159.32 62.66L206.08 54.82Q211.40 53.98 216.16 53.98L216.16 53.98Q225.40 53.70 236.88 64.06L236.88 64.06Q242.48 69.10 243.88 70.50ZM190.96 120.62L190.96 120.62Q182.84 120.06 169.68 108.86L169.68 108.86Q170.52 105.78 171.08 105.50L171.08 105.50Q175.84 103.26 185.64 107.74L185.64 107.74Q192.64 111.10 192.92 114.74L192.92 114.74L192.64 118.66Q192.08 120.06 190.96 120.62ZM135.52 97.94L136.08 101.58Q133.28 108.30 120.68 97.66L120.68 97.66Q117.32 94.58 115.92 92.90L115.92 92.90Q115.64 88.70 123.20 89.82L123.20 89.82Q132.72 90.94 135.52 97.94L135.52 97.94ZM112.84 112.78L112.84 112.78L113.40 112.50Q126.56 113.62 130.48 117.54L130.48 117.54Q131.88 118.66 132.72 120.34L132.72 120.34L133.56 123.98L133.56 124.26Q133.56 130.42 124.32 125.38L124.32 125.38Q116.20 120.90 113.68 115.30L113.68 115.30Q112.84 113.90 112.84 112.78ZM229.60 171.58L229.60 171.58Q229.60 173.82 225.96 179.98L225.96 179.98L224.84 182.50Q224.28 183.62 220.64 212.18L220.64 212.18Q215.88 248.86 207.20 248.86L207.20 248.86Q197.96 237.66 190.96 230.94L190.96 230.94L183.12 223.94Q182.84 223.66 182.28 222.54L182.28 222.54L199.64 225.06Q200.76 225.06 201.60 224.78L201.60 224.78Q208.04 223.94 210.00 173.82L210.00 173.82Q204.68 165.98 175.00 171.58L175.00 171.58Q171.92 172.14 169.68 172.70L169.68 172.70L176.68 177.46L178.08 179.42L171.92 225.62Q170.80 230.66 169.68 234.86L169.68 234.86Q166.60 237.94 165.48 237.10L165.48 237.10Q161.84 231.22 161.56 202.10L161.56 202.10Q161.28 181.10 159.32 173.82L159.32 173.82Q152.32 173.82 131.88 178.02L131.88 178.02L138.88 182.22L139.16 182.78L137.48 220.30Q135.80 225.90 134.68 226.74L134.68 226.74Q131.60 225.62 129.36 218.90L129.36 218.90L128.80 217.78Q127.68 193.14 127.68 192.30L127.68 192.30Q126.84 185.58 124.88 180.26L124.88 180.26Q119.28 181.10 106.96 185.02L106.96 185.02L108.08 220.02Q107.52 227.58 105.56 229.54L105.56 229.54Q102.20 229.54 96.04 223.10L96.04 223.10Q93.80 218.34 94.64 203.50L94.64 203.50Q95.48 187.26 89.32 177.74L89.32 177.74Q89.32 174.38 91.00 173.82L91.00 173.82Q99.12 177.46 115.36 173.54L115.36 173.54Q122.36 171.58 125.44 171.30L125.44 171.30Q133 157.30 134.12 147.78L134.12 147.78Q125.72 149.46 118.72 148.06L118.72 148.06Q111.16 146.94 107.24 142.46L107.24 142.46Q107.52 140.22 111.44 139.66L111.44 139.66Q114.52 138.82 142.80 134.90L142.80 134.90Q147.28 134.34 150.92 133.50L150.92 133.50L179.48 126.22Q181.16 125.94 182.56 125.94L182.56 125.94Q187.88 125.38 192.64 127.34L192.64 127.34Q196.28 128.74 198.24 131.54L198.24 131.54Q197.96 134.06 194.32 135.46L194.32 135.46Q184.80 139.10 157.08 143.30L157.08 143.30Q147.84 144.42 142.24 145.82L142.24 145.82L147.28 153.66Q147.84 155.06 147.84 156.46L147.84 156.46L134.68 169.62L193.76 162.34L211.12 158.98L212.80 158.98Q224.00 165.98 229.60 171.58ZM58.24 97.94L58.24 97.94L68.60 108.58Q71.12 111.66 71.12 114.74L71.12 114.74L68.88 129.02L67.20 182.50L66.36 209.66Q64.12 235.98 56.00 230.10L56.00 230.10Q43.96 221.14 51.52 190.62L51.52 190.62Q52.08 188.66 52.92 186.42L52.92 186.42Q57.68 166.54 57.40 132.94L57.40 132.94Q57.40 130.14 57.40 126.78L57.40 126.78Q57.40 118.10 51.24 107.74L51.24 107.74L33.04 129.58Q25.20 137.98 17.36 142.18L17.36 142.18L13.72 142.18L13.72 139.66Q56.56 85.06 66.08 53.14L66.08 53.14Q67.76 47.26 66.36 38.86L66.36 38.86Q65.80 36.06 64.68 33.54L64.68 33.54Q65.52 28.22 77.28 33.54L77.28 33.54Q88.48 38.86 90.44 44.74L90.44 44.74Q90.72 45.58 90.72 46.42L90.72 46.42Q90.72 48.66 85.12 55.38L85.12 55.38L83.16 57.90Q66.92 85.62 58.24 97.94Z" stroke="#000" fill="black" /></svg>