<svg width="280" height="280" version="1.1" xmlns="http://www.w3.org/2000/svg" xmlns:xlink="http://www.w3.org/1999/xlink"><path d="M242.76 78.21L242.76 78.21L238.56 80.17Q163.80 81.85 130.76 86.05L130.76 86.05Q118.72 115.73 100.24 143.17L100.24 143.17Q110.32 149.89 164.64 135.33L164.64 135.33Q176.12 132.25 182.56 130.01L182.56 130.01Q190.12 130.29 204.40 138.13L204.40 138.13Q214.76 143.45 215.04 147.37L215.04 147.37Q215.60 151.01 207.48 160.25L207.48 160.25Q204.96 163.33 203.84 164.73L203.84 164.73Q197.96 175.37 191.52 194.69L191.52 194.69Q197.12 200.01 197.40 200.57L197.40 200.57Q198.52 202.53 198.80 204.49L198.80 204.49L196.56 206.17Q157.92 207.85 144.76 209.25L144.76 209.25L123.76 212.33L115.36 211.77L113.68 221.85Q112.84 224.93 110.60 226.61L110.60 226.61Q101.36 220.73 99.96 201.97L99.96 201.97Q98.84 188.25 98.56 186.57L98.56 186.57Q95.20 165.29 92.12 155.77L92.12 155.77Q56.00 200.85 14.28 212.89L14.28 212.89L14.28 211.77Q79.52 164.17 108.92 99.21L108.92 99.21Q111.16 94.17 113.12 89.13L113.12 89.13Q100.52 89.13 70.28 96.69L70.28 96.69Q68.04 96.97 66.08 97.53L66.08 97.53Q53.76 100.61 49.84 100.89L49.84 100.89Q43.40 101.17 37.52 97.25L37.52 97.25Q34.16 95.29 32.20 92.49L32.20 92.49Q32.20 89.41 34.16 89.13L34.16 89.13L117.04 78.21Q128.80 47.69 122.36 26.41L122.36 26.41Q120.96 21.93 118.72 18.01L118.72 18.01Q117.88 10.73 130.76 14.37L130.76 14.37Q143.92 17.73 149.52 24.45L149.52 24.45L151.20 27.25L151.20 27.81Q151.20 29.77 145.88 38.73L145.88 38.73L145.04 40.13Q144.20 42.65 138.60 63.65L138.60 63.65Q136.92 70.37 134.96 75.13L134.96 75.13Q140.28 75.69 190.96 65.61L190.96 65.61Q207.48 62.25 213.08 61.69L213.08 61.69Q219.24 60.85 231.56 65.89L231.56 65.89Q246.12 72.05 242.76 78.21ZM174.72 145.13L109.76 155.21L114.52 201.41Q124.32 200.57 165.48 193.85L165.48 193.85Q170.80 192.73 175.56 192.17L175.56 192.17L181.16 169.49Q186.20 143.45 174.72 145.13L174.72 145.13Z" stroke="#000" fill="black" /></svg>