<svg width="280" height="280" version="1.1" xmlns="http://www.w3.org/2000/svg" xmlns:xlink="http://www.w3.org/1999/xlink"><path d="M245.00 217.34L246.96 220.14L245.28 221.54Q215.32 224.34 199.64 223.22L199.64 223.22Q185.64 212.86 152.60 168.06L152.60 168.06Q149.24 163.30 147.28 161.06L147.28 161.06L147.28 238.06Q147.28 255.14 142.52 260.74L142.52 260.74L139.16 263.82Q132.72 263.54 129.08 243.10L129.08 243.10Q128.24 238.34 128.24 235.82L128.24 235.82Q128.24 233.02 130.20 225.46L130.20 225.46Q135.52 207.54 135.24 169.74L135.24 169.74Q135.24 163.86 135.24 161.06L135.24 161.06Q109.48 201.10 75.04 219.58L75.04 219.58Q70 222.38 64.68 224.62L64.68 224.62Q53.76 228.82 51.52 228.82L51.52 228.82Q49.00 228.82 46.20 228.26L46.20 228.26L46.20 227.42L82.60 202.78Q115.64 178.42 125.44 152.94L125.44 152.94L108.08 155.18Q107.80 155.46 106.40 158.82L106.40 158.82Q106.12 159.38 105.56 159.66L105.56 159.66L103.88 159.10Q97.72 155.18 94.64 138.38L94.64 138.38Q93.24 131.66 92.40 129.14L92.40 129.14Q87.92 114.02 81.48 101.98L81.48 101.98Q81.48 99.74 82.88 98.62L82.88 98.62Q95.20 101.98 116.48 96.66L116.48 96.66Q129.08 93.58 134.68 92.74L134.68 92.74L135.52 91.90L135.24 72.86L113.96 74.54Q109.20 74.26 105.56 72.86L105.56 72.86Q103.32 72.02 101.36 70.34L101.36 70.34Q102.20 67.82 105.28 66.98L105.28 66.98Q110.04 66.70 131.88 61.94L131.88 61.94L134.68 61.38Q134.68 45.70 124.04 31.42L124.04 31.42L124.04 27.78Q128.24 22.46 143.36 31.14L143.36 31.14Q150.64 35.34 152.60 38.42L152.60 38.42Q153.72 40.38 149.52 55.22L149.52 55.22Q149.24 56.06 148.96 56.62L148.96 56.62L171.64 50.18Q182.00 48.50 188.44 54.94L188.44 54.94Q188.44 57.74 184.80 58.86L184.80 58.86L148.68 69.22L147.28 70.34L146.72 89.66Q152.32 89.94 169.96 86.30L169.96 86.30Q181.72 83.78 190.40 84.62L190.40 84.62L204.40 93.86Q207.48 96.38 209.44 98.90L209.44 98.90Q209.44 103.10 203.56 108.14L203.56 108.14Q201.04 110.10 199.92 111.50L199.92 111.50Q197.96 114.30 188.44 136.14L188.44 136.14L182.56 147.62Q181.16 149.86 180.04 150.70L180.04 150.70Q177.52 152.66 172.76 152.66L172.76 152.66Q169.96 150.14 169.96 147.34L169.96 147.34Q154.28 147.90 147.28 150.14L147.28 150.14Q178.36 179.82 183.12 183.74L183.12 183.74Q204.68 202.22 236.88 214.26L236.88 214.26Q240.80 215.66 245.00 217.34L245.00 217.34ZM182.56 96.94L182.56 96.94L180.88 94.42Q165.20 94.42 147.28 98.06L147.28 98.06L147.28 114.58Q159.04 114.58 162.12 115.98L162.12 115.98Q164.64 117.10 165.76 119.06L165.76 119.06L166.32 122.14Q163.52 123.82 153.16 124.94L153.16 124.94L147.28 126.34L147.84 140.34Q158.48 136.98 168.56 137.82L168.56 137.82Q169.96 137.82 171.08 138.10L171.08 138.10Q179.76 111.50 182.56 96.94ZM135.24 142.86L135.52 128.58L118.44 130.26Q114.80 128.02 114.24 126.06L114.24 126.06L135.52 118.22L135.52 100.58L109.20 106.46Q104.16 108.14 100.24 109.82L100.24 109.82L107.80 148.18L135.24 142.86ZM85.40 67.82L85.40 67.82Q85.40 71.46 78.68 76.78L78.68 76.78L75.32 79.86Q64.12 92.18 61.88 95.26L61.88 95.26Q60.20 97.78 59.36 100.30L59.36 100.30Q59.36 104.22 67.76 115.70L67.76 115.70Q78.96 131.38 78.96 142.86L78.96 142.86Q78.96 150.70 74.20 155.74L74.20 155.74Q71.12 158.82 67.20 157.42L67.20 157.42Q59.92 149.86 40.32 134.74L40.32 134.74L40.04 133.34L56.28 137.82Q62.16 138.66 63.56 135.86L63.56 135.86Q63.56 128.02 55.44 113.46L55.44 113.46Q52.36 107.58 51.24 104.22L51.24 104.22L51.52 98.90L64.12 74.54Q64.12 72.30 61.32 70.34L61.32 70.34Q58.52 70.62 46.76 74.54L46.76 74.54Q46.20 74.82 45.36 75.10L45.36 75.10Q44.80 75.38 37.24 76.50L37.24 76.50Q32.48 77.34 32.48 80.14L32.48 80.14Q32.48 81.26 33.32 82.94L33.32 82.94L31.64 192.70L31.92 220.14Q30.80 240.30 24.92 243.10L24.92 243.10Q22.12 242.82 18.48 236.66L18.48 236.66Q11.76 226.58 15.96 208.66L15.96 208.66Q18.76 195.50 19.04 192.70L19.04 192.70Q24.92 151.54 22.40 110.10L22.40 110.10Q21.84 99.18 20.44 91.06L20.44 91.06Q20.16 87.98 14.84 70.62L14.84 70.62Q13.44 66.70 12.88 63.62L12.88 63.62Q19.04 59.98 29.12 67.82L29.12 67.82Q30.24 68.66 31.36 69.78L31.36 69.78Q50.96 67.54 66.92 56.34L66.92 56.34Q75.60 56.34 85.40 67.82Z" stroke="#000" fill="black" /></svg>